<svg width="24" height="17" viewBox="0 0 24 17" fill="none" xmlns="http://www.w3.org/2000/svg">
<path d="M21.2981 2.05164C21.1462 1.89977 20.9402 1.81445 20.7255 1.81445C20.5107 1.81445 20.3047 1.89977 20.1529 2.05164C20.001 2.20351 19.9157 2.40948 19.9157 2.62425C19.9157 2.83903 20.001 3.045 20.1529 3.19687C21.2382 4.28344 21.8478 5.75641 21.8478 7.29218C21.8478 8.82796 21.2382 10.3009 20.1529 11.3875C19.9988 11.5404 19.9119 11.7483 19.9111 11.9653C19.9104 12.1824 19.9959 12.3909 20.1488 12.5449C20.3018 12.6989 20.5096 12.7858 20.7267 12.7866C20.9437 12.7874 21.1522 12.7019 21.3062 12.5489C21.9946 11.8608 22.5407 11.0439 22.9132 10.1447C23.2858 9.24547 23.4776 8.28169 23.4776 7.30837C23.4776 6.33505 23.2858 5.37127 22.9132 4.47208C22.5407 3.57289 21.9946 2.75591 21.3062 2.06783L21.2981 2.05164Z" fill="#B6B9C7"/>
<path d="M19.125 4.2244C19.0498 4.1492 18.9605 4.08955 18.8622 4.04886C18.764 4.00816 18.6587 3.98722 18.5523 3.98722C18.446 3.98722 18.3407 4.00816 18.2424 4.04886C18.1442 4.08955 18.0549 4.1492 17.9797 4.2244C17.9045 4.2996 17.8449 4.38887 17.8042 4.48712C17.7635 4.58537 17.7425 4.69067 17.7425 4.79702C17.7425 4.90336 17.7635 5.00866 17.8042 5.10691C17.8449 5.20516 17.9045 5.29443 17.9797 5.36963C18.4893 5.87956 18.7755 6.57095 18.7755 7.29184C18.7755 8.01273 18.4893 8.70411 17.9797 9.21405C17.8279 9.36591 17.7425 9.57189 17.7425 9.78666C17.7425 10.0014 17.8279 10.2074 17.9797 10.3593C18.1316 10.5111 18.3376 10.5965 18.5523 10.5965C18.7671 10.5965 18.9731 10.5111 19.125 10.3593C19.9375 9.5452 20.3938 8.44202 20.3938 7.29184C20.3938 6.14166 19.9375 5.03847 19.125 4.2244ZM16.187 0.120993C16.0661 0.0462312 15.9277 0.00462638 15.7856 0.000364039C15.6435 -0.0038983 15.5028 0.029332 15.3777 0.0967122L7.89522 4.05039H0.809351C0.594697 4.05039 0.388836 4.13566 0.237053 4.28744C0.0852706 4.43923 0 4.64509 0 4.85974V9.71584C0 9.9305 0.0852706 10.1364 0.237053 10.2881C0.388836 10.4399 0.594697 10.5252 0.809351 10.5252H1.79676L3.26168 16.3889C3.30583 16.5637 3.40704 16.7186 3.54925 16.8293C3.69146 16.94 3.86654 17.0001 4.04675 17H7.68883C7.81203 17.0001 7.93362 16.972 8.04433 16.9179C8.15504 16.8639 8.25195 16.7853 8.32767 16.6881C8.40338 16.5909 8.45592 16.4777 8.48126 16.3571C8.5066 16.2366 8.50409 16.1118 8.4739 15.9924L7.1061 10.5252H7.89117L15.4019 14.4789C15.5254 14.5446 15.6638 14.5772 15.8036 14.5736C15.9435 14.5699 16.08 14.53 16.1998 14.4579C16.3196 14.3857 16.4187 14.2838 16.4874 14.1619C16.5561 14.04 16.592 13.9025 16.5917 13.7626V0.812988C16.5901 0.672434 16.552 0.534707 16.481 0.41337C16.4101 0.292032 16.3087 0.191266 16.187 0.120993ZM4.67805 15.3813L3.46402 10.5252H5.43884L6.65286 15.3813H4.67805ZM7.28416 8.90649H1.6187V5.66909H7.28416V8.90649ZM14.973 12.4231L8.90286 9.23023V5.3494L14.973 2.15651V12.4231Z" fill="#B6B9C7"/>
</svg>
