<svg width="17" height="17" viewBox="0 0 17 17" fill="none" xmlns="http://www.w3.org/2000/svg">
<path d="M9.27273 2.31818V5.40909C9.27273 6.68989 10.3101 7.72727 11.5909 7.72727H14.6818C15.9626 7.72727 17 6.68989 17 5.40909V2.31818C17 1.03739 15.9626 0 14.6818 0H11.5909C10.3101 0 9.27273 1.03739 9.27273 2.31818ZM10.8182 2.31818C10.8182 1.89125 11.164 1.54545 11.5909 1.54545H14.6818C15.1087 1.54545 15.4545 1.89125 15.4545 2.31818V5.40909C15.4545 5.83602 15.1087 6.18182 14.6818 6.18182H11.5909C11.164 6.18182 10.8182 5.83602 10.8182 5.40909V2.31818ZM0 2.31818V14.6818C0 15.9626 1.03739 17 2.31818 17H5.40909C6.68989 17 7.72727 15.9626 7.72727 14.6818V2.31818C7.72727 1.03739 6.68989 0 5.40909 0H2.31818C1.03739 0 0 1.03739 0 2.31818ZM1.54545 2.31818C1.54545 1.89125 1.89125 1.54545 2.31818 1.54545H5.40909C5.83602 1.54545 6.18182 1.89125 6.18182 2.31818V14.6818C6.18182 15.1087 5.83602 15.4545 5.40909 15.4545H2.31818C1.89125 15.4545 1.54545 15.1087 1.54545 14.6818V2.31818ZM9.27273 11.5909V14.6818C9.27273 15.9626 10.3101 17 11.5909 17H14.6818C15.9626 17 17 15.9626 17 14.6818V11.5909C17 10.3101 15.9626 9.27273 14.6818 9.27273H11.5909C10.3101 9.27273 9.27273 10.3101 9.27273 11.5909ZM10.8182 11.5909C10.8182 11.164 11.164 10.8182 11.5909 10.8182H14.6818C15.1087 10.8182 15.4545 11.164 15.4545 11.5909V14.6818C15.4545 15.1087 15.1087 15.4545 14.6818 15.4545H11.5909C11.164 15.4545 10.8182 15.1087 10.8182 14.6818V11.5909Z" fill="#B6B9C7"/>
</svg>
