<svg width="22" height="22" viewBox="0 0 22 22" fill="none" xmlns="http://www.w3.org/2000/svg">
<path d="M11 0.6875C8.9943 0.6875 7.07075 1.48426 5.65251 2.90251C4.23426 4.32075 3.4375 6.2443 3.4375 8.25C3.4375 12.2375 10.175 20.6937 10.4638 21.0581C10.5282 21.1384 10.6098 21.2032 10.7026 21.2478C10.7954 21.2923 10.8971 21.3154 11 21.3154C11.1029 21.3154 11.2046 21.2923 11.2974 21.2478C11.3902 21.2032 11.4718 21.1384 11.5363 21.0581C11.825 20.6937 18.5625 12.2375 18.5625 8.25C18.5625 6.2443 17.7657 4.32075 16.3475 2.90251C14.9293 1.48426 13.0057 0.6875 11 0.6875V0.6875ZM11 19.5112C8.87563 16.7612 4.8125 10.9175 4.8125 8.25C4.8125 6.60897 5.4644 5.03516 6.62478 3.87478C7.78516 2.7144 9.35897 2.0625 11 2.0625C12.641 2.0625 14.2148 2.7144 15.3752 3.87478C16.5356 5.03516 17.1875 6.60897 17.1875 8.25C17.1875 10.9175 13.1244 16.7475 11 19.5112Z" fill="#B6B9C7"/>
<path d="M11.4265 3.56801C11.3051 3.4721 11.1549 3.41992 11.0002 3.41992C10.8455 3.41992 10.6953 3.4721 10.574 3.56801L7.13647 6.31801C7.05267 6.38417 6.98544 6.46894 6.94009 6.5656C6.89474 6.66226 6.87253 6.76815 6.87522 6.87488V10.9999C6.87522 11.1822 6.94765 11.3571 7.07658 11.486C7.20551 11.615 7.38038 11.6874 7.56272 11.6874H14.4377C14.6201 11.6874 14.7949 11.615 14.9239 11.486C15.0528 11.3571 15.1252 11.1822 15.1252 10.9999V6.87488C15.1247 6.77162 15.101 6.66979 15.0558 6.57695C15.0106 6.48411 14.945 6.40266 14.864 6.33863L11.4265 3.56801ZM13.7502 10.3124H8.25022V7.18426L11.0002 4.98426L13.7502 7.18426V10.3124Z" fill="#B6B9C7"/>
</svg>
