<svg width="22" height="22" viewBox="0 0 22 22" fill="none" xmlns="http://www.w3.org/2000/svg">
<g id="notification">
<path id="Vector" d="M16.3103 9.10298C18.1957 9.10298 19.7241 7.57457 19.7241 5.68918C19.7241 3.8038 18.1957 2.27539 16.3103 2.27539C14.4249 2.27539 12.8965 3.8038 12.8965 5.68918C12.8965 7.57457 14.4249 9.10298 16.3103 9.10298Z" fill="#B6B9C7"/>
<path id="Vector_2" d="M11.3788 5.31055H3.79263C3.39023 5.31055 3.00432 5.4704 2.71978 5.75494C2.43524 6.03947 2.27539 6.42539 2.27539 6.82779V18.2071C2.27539 18.6095 2.43524 18.9954 2.71978 19.28C3.00432 19.5645 3.39023 19.7243 3.79263 19.7243H15.1719C15.5743 19.7243 15.9603 19.5645 16.2448 19.28C16.5293 18.9954 16.6892 18.6095 16.6892 18.2071V10.6209" stroke="#B6B9C7" stroke-width="2" stroke-miterlimit="10"/>
</g>
</svg>
