<svg width="18" height="19" viewBox="0 0 18 19" fill="none" xmlns="http://www.w3.org/2000/svg">
<path d="M12.7708 2.87C13.0005 3.00037 13.2724 3.03464 13.5273 2.96532C13.7821 2.896 13.9992 2.72873 14.1311 2.5C14.2403 2.30736 14.4104 2.15639 14.6146 2.07078C14.8188 1.98517 15.0457 1.96975 15.2597 2.02694C15.4736 2.08414 15.6626 2.21071 15.7968 2.38681C15.9311 2.56291 16.0031 2.77858 16.0015 3C16.0015 3.26522 15.8961 3.51957 15.7086 3.70711C15.521 3.89464 15.2666 4 15.0013 4C14.736 4 14.4816 4.10536 14.294 4.29289C14.1065 4.48043 14.0011 4.73478 14.0011 5C14.0011 5.26522 14.1065 5.51957 14.294 5.70711C14.4816 5.89464 14.736 6 15.0013 6C15.5279 5.99966 16.0452 5.86075 16.5011 5.59723C16.9571 5.33371 17.3356 4.95486 17.5987 4.49875C17.8618 4.04264 18.0002 3.52533 18 2.9988C17.9998 2.47227 17.861 1.95507 17.5975 1.49917C17.334 1.04326 16.9552 0.664718 16.4991 0.401563C16.0429 0.138409 15.5255 -8.42941e-05 14.9989 3.84915e-08C14.4723 8.43711e-05 13.9549 0.138743 13.4989 0.402044C13.0428 0.665344 12.6641 1.04401 12.4008 1.5C12.3346 1.61413 12.2917 1.74022 12.2745 1.871C12.2574 2.00178 12.2662 2.13466 12.3006 2.262C12.335 2.38934 12.3943 2.50862 12.475 2.61297C12.5557 2.71732 12.6562 2.80467 12.7708 2.87ZM17.0717 10C16.8092 9.96593 16.5438 10.0373 16.3338 10.1985C16.1239 10.3597 15.9864 10.5976 15.9515 10.86C15.7416 12.5552 14.919 14.1151 13.6386 15.246C12.3583 16.3769 10.7085 17.0007 9.00006 17H3.40889L4.05903 16.35C4.24532 16.1626 4.34988 15.9092 4.34988 15.645C4.34988 15.3808 4.24532 15.1274 4.05903 14.94C3.08378 13.9611 2.42007 12.7156 2.15153 11.3603C1.88298 10.005 2.02159 8.60052 2.54992 7.32383C3.07824 6.04714 3.97263 4.95532 5.12044 4.18589C6.26825 3.41646 7.61813 3.00384 9.00006 3C9.26533 3 9.51973 2.89464 9.70731 2.70711C9.89488 2.51957 10.0003 2.26522 10.0003 2C10.0003 1.73478 9.89488 1.48043 9.70731 1.29289C9.51973 1.10536 9.26533 0.999999 9.00006 0.999999C7.30894 1.00705 5.65401 1.49024 4.22486 2.39419C2.79571 3.29815 1.65016 4.58632 0.919442 6.11112C0.188721 7.63592 -0.0976099 9.33568 0.0932513 11.0157C0.284113 12.6956 0.944446 14.2879 1.9986 15.61L0.288246 17.29C0.14946 17.4306 0.055444 17.6092 0.0180621 17.8032C-0.0193198 17.9972 0.00160723 18.1979 0.0782026 18.38C0.153238 18.5626 0.280663 18.7189 0.444417 18.8293C0.608171 18.9396 0.800927 18.999 0.998394 19H9.00006C11.192 19.0003 13.3087 18.201 14.9531 16.7521C16.5975 15.3031 17.6567 13.3041 17.9319 11.13C17.9502 10.9993 17.9424 10.8662 17.909 10.7385C17.8756 10.6107 17.8172 10.4909 17.7373 10.3858C17.6573 10.2808 17.5573 10.1926 17.4431 10.1264C17.3289 10.0602 17.2026 10.0172 17.0717 10V10ZM15.3814 7.07C15.1993 6.98945 14.9973 6.96508 14.8013 7L14.6212 7.06L14.4412 7.15L14.2912 7.28C14.2012 7.37215 14.1299 7.48081 14.0811 7.6C14.022 7.72473 13.9945 7.86212 14.0011 8C13.9982 8.13337 14.022 8.26597 14.0711 8.39C14.1228 8.51002 14.1976 8.61873 14.2912 8.71C14.3846 8.80268 14.4955 8.87601 14.6173 8.92577C14.7392 8.97553 14.8697 9.00076 15.0013 9C15.2666 9 15.521 8.89464 15.7086 8.70711C15.8961 8.51957 16.0015 8.26522 16.0015 8C16.0049 7.86882 15.9775 7.73868 15.9215 7.62C15.814 7.37971 15.6217 7.18745 15.3814 7.08V7.07Z" fill="#B6B9C7"/>
</svg>
