<svg width="16" height="19" viewBox="0 0 16 19" fill="none" xmlns="http://www.w3.org/2000/svg">
<path d="M11.3381 4.79418C11.3381 4.97139 11.3254 5.1486 11.3022 5.32379C11.3128 5.25331 11.3233 5.18082 11.3318 5.11034C11.2811 5.46073 11.184 5.80105 11.0425 6.12727C11.07 6.06283 11.0995 5.99839 11.127 5.93396C10.9855 6.25213 10.8039 6.55016 10.5822 6.82403C10.6266 6.76966 10.6709 6.71529 10.7152 6.66092C10.4957 6.93076 10.2402 7.17442 9.95725 7.38385C10.0143 7.34156 10.0713 7.29927 10.1283 7.25698C9.84112 7.46641 9.52864 7.64161 9.19503 7.77653C9.2626 7.75035 9.33016 7.72216 9.39773 7.69598C9.05568 7.8309 8.69885 7.92353 8.33147 7.97186C8.40536 7.96179 8.48138 7.95172 8.55527 7.94367C8.18578 7.98998 7.81417 7.98998 7.44467 7.94367C7.51857 7.95374 7.59458 7.96381 7.66848 7.97186C7.3011 7.92353 6.94427 7.8309 6.60222 7.69598C6.66978 7.72216 6.73735 7.75035 6.80491 7.77653C6.47131 7.64161 6.15882 7.46843 5.87167 7.25698C5.92868 7.29927 5.98569 7.34156 6.04269 7.38385C5.75977 7.17442 5.50428 6.93076 5.2847 6.66092C5.32904 6.71529 5.37338 6.76966 5.41772 6.82403C5.19813 6.55016 5.01444 6.25213 4.87297 5.93396C4.90042 5.99839 4.92998 6.06283 4.95743 6.12727C4.81596 5.80105 4.71884 5.46073 4.66817 5.11034C4.67872 5.18082 4.68928 5.25331 4.69773 5.32379C4.64916 4.97139 4.64916 4.61697 4.69773 4.26456C4.68717 4.33505 4.67661 4.40754 4.66817 4.47802C4.71884 4.12763 4.81596 3.78731 4.95743 3.46108C4.92998 3.52552 4.90042 3.58996 4.87297 3.6544C5.01444 3.33623 5.19602 3.0382 5.41772 2.76433C5.37338 2.8187 5.32904 2.87307 5.2847 2.92744C5.50428 2.6576 5.75977 2.41394 6.04269 2.20451C5.98569 2.2468 5.92868 2.28908 5.87167 2.33137C6.15882 2.12194 6.47131 1.94675 6.80491 1.81183C6.73735 1.83801 6.66978 1.8662 6.60222 1.89238C6.94427 1.75746 7.3011 1.66482 7.66848 1.61649C7.59458 1.62656 7.51857 1.63663 7.44467 1.64469C7.81417 1.59837 8.18578 1.59837 8.55527 1.64469C8.48138 1.63462 8.40536 1.62455 8.33147 1.61649C8.69885 1.66482 9.05568 1.75746 9.39773 1.89238C9.33016 1.8662 9.2626 1.83801 9.19503 1.81183C9.52864 1.94675 9.84112 2.11993 10.1283 2.33137C10.0713 2.28908 10.0143 2.2468 9.95725 2.20451C10.2402 2.41394 10.4957 2.6576 10.7152 2.92744C10.6709 2.87307 10.6266 2.8187 10.5822 2.76433C10.8018 3.0382 10.9855 3.33623 11.127 3.6544C11.0995 3.58996 11.07 3.52552 11.0425 3.46108C11.184 3.78731 11.2811 4.12763 11.3318 4.47802C11.3212 4.40754 11.3107 4.33505 11.3022 4.26456C11.3254 4.43976 11.336 4.61697 11.3381 4.79418C11.3402 5.21505 11.7245 5.61981 12.1827 5.59967C12.6387 5.57954 13.0294 5.24526 13.0272 4.79418C13.023 3.8296 12.719 2.84286 12.1236 2.0575C11.9631 1.84606 11.7921 1.63865 11.602 1.45137C11.4099 1.26208 11.1988 1.09896 10.9792 0.939878C10.5801 0.649899 10.1346 0.436443 9.66165 0.271316C7.75505 -0.395232 5.45572 0.198821 4.16565 1.69704C3.98829 1.90245 3.81938 2.1159 3.6758 2.34547C3.53223 2.57302 3.42032 2.81467 3.31686 3.06035C3.12261 3.51545 3.02338 3.99875 2.98326 4.48809C2.90514 5.44663 3.16695 6.44746 3.69058 7.26906C4.19521 8.06248 4.95743 8.74312 5.84845 9.12775C6.11026 9.24052 6.37841 9.34523 6.65712 9.41974C6.93371 9.49224 7.21453 9.53251 7.49957 9.56473C8.01898 9.62313 8.54894 9.58285 9.06201 9.48418C11.0108 9.1056 12.643 7.50467 12.9449 5.62585C12.9892 5.35198 13.023 5.07812 13.023 4.80022C13.0251 4.37935 12.6324 3.97459 12.1785 3.99472C11.7224 4.00882 11.3381 4.3431 11.3381 4.79418ZM14.14 17.3861C13.7261 17.3861 13.3123 17.3861 12.8984 17.3861C11.9124 17.3861 10.9285 17.3861 9.94247 17.3861C8.75586 17.3861 7.56925 17.3861 6.38052 17.3861C5.35649 17.3861 4.33245 17.3861 3.30631 17.3861C2.82702 17.3861 2.34772 17.3901 1.86843 17.3861C1.81565 17.3861 1.76286 17.3821 1.71219 17.376C1.78609 17.3861 1.8621 17.3962 1.936 17.4042C1.85154 17.3921 1.77131 17.37 1.69319 17.3398C1.76075 17.366 1.82832 17.3942 1.89588 17.4203C1.81143 17.3861 1.7333 17.3418 1.6594 17.2874C1.71641 17.3297 1.77342 17.372 1.83043 17.4143C1.76709 17.3639 1.70797 17.3096 1.65729 17.2492C1.70163 17.3035 1.74597 17.3579 1.79031 17.4123C1.7333 17.3418 1.68896 17.2673 1.65096 17.1867C1.67841 17.2512 1.70797 17.3156 1.73542 17.3801C1.70374 17.3056 1.68263 17.227 1.66785 17.1485C1.67841 17.219 1.68896 17.2915 1.69741 17.3619C1.66363 17.1183 1.68685 16.8605 1.68685 16.6148C1.68685 16.3269 1.68685 16.0409 1.68685 15.753C1.68685 15.5375 1.69952 15.324 1.72908 15.1106C1.71852 15.1811 1.70797 15.2535 1.69952 15.324C1.75864 14.9112 1.87266 14.5064 2.04368 14.1218C2.01623 14.1863 1.98667 14.2507 1.95922 14.3151C2.12391 13.9486 2.33506 13.6043 2.59054 13.2881C2.5462 13.3425 2.50186 13.3969 2.45752 13.4512C2.713 13.1391 3.00649 12.8572 3.33587 12.6135C3.27886 12.6558 3.22185 12.6981 3.16484 12.7404C3.49633 12.4967 3.85738 12.2954 4.24166 12.1383C4.1741 12.1645 4.10653 12.1927 4.03897 12.2188C4.44224 12.0577 4.86453 11.947 5.29948 11.8906C5.22558 11.9007 5.14957 11.9107 5.07567 11.9188C5.38816 11.8805 5.69853 11.8785 6.01314 11.8785C6.39952 11.8785 6.78591 11.8785 7.1723 11.8785C8.07387 11.8785 8.97545 11.8785 9.87702 11.8785C10.2254 11.8785 10.5717 11.8765 10.9201 11.9188C10.8462 11.9087 10.7701 11.8987 10.6962 11.8906C11.1291 11.947 11.5535 12.0557 11.9568 12.2188C11.8892 12.1927 11.8216 12.1645 11.7541 12.1383C12.1383 12.2954 12.4994 12.4967 12.8309 12.7404C12.7739 12.6981 12.7169 12.6558 12.6599 12.6135C12.9871 12.8572 13.2827 13.1371 13.5382 13.4512C13.4939 13.3969 13.4495 13.3425 13.4052 13.2881C13.6607 13.6043 13.8718 13.9486 14.0365 14.3151C14.0091 14.2507 13.9795 14.1863 13.952 14.1218C14.121 14.5064 14.2371 14.9092 14.2962 15.324C14.2856 15.2535 14.2751 15.1811 14.2666 15.1106C14.3068 15.4146 14.3089 15.7167 14.3089 16.0228C14.3089 16.3551 14.3089 16.6873 14.3089 17.0196C14.3089 17.1344 14.3131 17.2492 14.2983 17.3619C14.3089 17.2915 14.3194 17.219 14.3279 17.1485C14.3152 17.229 14.292 17.3056 14.2603 17.3801C14.2878 17.3156 14.3173 17.2512 14.3448 17.1867C14.3089 17.2673 14.2624 17.3418 14.2054 17.4123C14.2498 17.3579 14.2941 17.3035 14.3384 17.2492C14.2856 17.3096 14.2286 17.366 14.1653 17.4143C14.2223 17.372 14.2793 17.3297 14.3363 17.2874C14.2624 17.3418 14.1843 17.3841 14.0998 17.4203C14.1674 17.3942 14.235 17.366 14.3025 17.3398C14.2244 17.37 14.1421 17.3901 14.0597 17.4042C14.1336 17.3942 14.2096 17.3841 14.2835 17.376C14.2371 17.3821 14.1885 17.3841 14.14 17.3861C13.9225 17.3881 13.6987 17.4747 13.5424 17.6217C13.3967 17.7607 13.2848 17.9902 13.2954 18.1916C13.3165 18.6225 13.667 19.0031 14.14 18.9971C14.9613 18.985 15.6834 18.4735 15.9241 17.7224C16.0191 17.4244 15.998 17.1042 15.998 16.7981C15.998 16.0973 16.0212 15.4026 15.8945 14.7078C15.7087 13.6909 15.1724 12.7344 14.4377 11.9832C13.7029 11.2321 12.7148 10.6803 11.6696 10.4347C11.07 10.2937 10.4661 10.2716 9.85379 10.2716C9.22459 10.2716 8.5975 10.2716 7.9683 10.2716C7.34755 10.2716 6.7289 10.2716 6.10815 10.2716C5.48106 10.2716 4.85819 10.2997 4.24799 10.4548C3.21129 10.7166 2.23582 11.2744 1.51583 12.0316C0.789503 12.7948 0.263761 13.7533 0.0927369 14.7763C-0.0212793 15.463 0.00194617 16.1517 0.00194617 16.8444C0.00194617 17.1626 -0.0170565 17.4948 0.103294 17.7989C0.259538 18.1896 0.508685 18.4977 0.873959 18.7293C1.159 18.9085 1.52005 18.9951 1.85788 18.9991C2.02257 19.0011 2.18726 18.9991 2.35195 18.9991C2.77423 18.9991 3.1944 18.9991 3.61668 18.9991C4.21632 18.9991 4.81385 18.9991 5.41349 18.9991C6.11026 18.9991 6.80703 18.9991 7.50379 18.9991C8.21956 18.9991 8.93322 18.9991 9.64899 18.9991C10.3035 18.9991 10.9559 18.9991 11.6105 18.9991C12.1236 18.9991 12.6366 18.9991 13.1476 18.9991C13.4411 18.9991 13.7346 18.9991 14.0281 18.9991C14.0661 18.9991 14.1041 18.9991 14.1421 18.9991C14.5834 18.9991 15.0077 18.6286 14.9866 18.1936C14.9655 17.7546 14.615 17.3861 14.14 17.3861Z" fill="#B6B9C7"/>
</svg>
